<svg width="493.4730224609375px" height="191.6px" xmlns="http://www.w3.org/2000/svg" viewBox="3.26348876953125 -20.799999999999997 493.4730224609375 191.6" style="background: rgba(0, 0, 0, 0);" preserveAspectRatio="xMidYMid"><defs><linearGradient id="editing-shiny-gradient" x1="0.04322727117869957" x2="0.9567727288213004" y1="0.2966316784620999" y2="0.7033683215379001" gradientUnits="objectBoundingBox"><stop offset="0.0" stop-color="#ffb200"></stop><stop offset="0.5" stop-color="#e10057"></stop><stop offset="1.0" stop-color="#5A1A80"></stop></linearGradient><linearGradient id="editing-shiny-gradient2" x1="0" x2="0" y1="0" y2="1"><stop offset="0.2" stop-color="#fff" stop-opacity="0.8"></stop><stop offset="0.8" stop-color="#fff" stop-opacity="0"></stop></linearGradient><filter id="editing-shiny2" x="-100%" y="-100%" width="300%" height="300%"><feMorphology operator="erode" radius="2"></feMorphology></filter><filter id="editing-shiny" x="-100%" y="-100%" width="300%" height="300%"><feFlood flood-color="#fff" result="flood"></feFlood><feConvolveMatrix in="SourceGraphic" result="conv" order="8,8" divisor="1" kernelMatrix="0 0 0 0 0 0 0 0 0 0 0 1 1 0 0 0 0 0 0 1 1 0 0 0 0 0 1 0 0 1 0 0 0 0 1 0 0 1 0 0 0 1 0 0 0 0 1 0 0 1 1 0 0 1 1 0 0 0 0 1 1 0 0 0 "></feConvolveMatrix><feOffset dx="0" dy="4" in="conv" result="offset"></feOffset><feComposite operator="in" in="flood" in2="offset" result="comp"></feComposite><feGaussianBlur in="offset" stdDeviation="3" result="shadow"></feGaussianBlur><feColorMatrix in="shadow" type="matrix" values="0.7 0 0 0 0  0 0.7 0 0 0  0 0 0.7 0 0  0 0 0 0.3 0" result="dark-shadow"></feColorMatrix><feOffset dx="0" dy="4" in="dark-shadow" result="offset-shadow"></feOffset><feOffset dx="0" dy="2" in="conv" result="offset-2"></feOffset><feComposite operator="out" in="offset" in2="offset-2" result="edge-diff"></feComposite><feGaussianBlur in="edge-diff" stdDeviation="1" result="edge-blur"></feGaussianBlur><feColorMatrix in="edge-blur" result="edge-shadow" type="matrix" values="0 0 0 0 0  0 0 0 0 0  0 0 0 0 0  0 0 0 0.5 0"></feColorMatrix><feComposite operator="in" in="edge-shadow" in2="offset" result="edge-shadow-in"></feComposite><feOffset dx="0" dy="1" in="edge-shadow-in" result="edge-shadow-final"></feOffset><feMerge result="out"><feMergeNode in="offset-shadow"></feMergeNode><feMergeNode in="comp"></feMergeNode><feMergeNode in="edge-shadow-final"></feMergeNode><feMergeNode in="SourceGraphic"></feMergeNode></feMerge></filter></defs><g filter="url(#editing-shiny)"><g transform="translate(78.60046756267548, 107.22000026702881)"><path d="M65.15-53.33L65.15-53.33L65.15-53.33Q65.15-51.11 63.33-48.18L63.33-48.18L63.33-48.18Q61.81-45.45 59.94-44.44L59.94-44.44L59.94-44.44Q58.08-43.43 58.08-44.64L58.08-44.64L58.08-44.64Q58.08-44.74 59.19-45.85L59.19-45.85L59.19-45.85Q62.52-48.99 62.52-51.01L62.52-51.01L62.52-51.01Q62.52-55.35 53.93-55.35L53.93-55.35L53.93-55.35Q50.30-55.35 44.34-53.98L44.34-53.98L44.34-53.98Q38.38-52.62 32.83-49.59L32.83-49.59L32.83-49.59Q26.36-46.06 26.36-43.43L26.36-43.43L26.36-43.43Q26.36-41.31 30.30-39.39L30.30-39.39L30.30-39.39Q32.42-38.38 38.73-36.01L38.73-36.01L38.73-36.01Q45.05-33.63 48.93-31.87L48.93-31.87L48.93-31.87Q52.82-30.10 56.31-26.87L56.31-26.87L56.31-26.87Q59.79-23.63 59.79-19.70L59.79-19.70L59.79-19.70Q59.79-15.76 55.15-11.11L55.15-11.11L55.15-11.11Q48.08-4.34 36.76 0.15L36.76 0.15L36.76 0.15Q25.45 4.65 17.37 4.65L17.37 4.65L17.37 4.65Q1.41 4.65 1.41-4.34L1.41-4.34L1.41-4.34Q1.41-13.33 11.21-19.59L11.21-19.59L11.21-19.59Q19.29-25.15 28.18-25.15L28.18-25.15L28.18-25.15Q30.30-25.15 30.10-24.44L30.10-24.44L30.10-24.44Q29.90-23.74 27.07-23.68L27.07-23.68L27.07-23.68Q24.24-23.63 19.80-21.77L19.80-21.77L19.80-21.77Q15.35-19.90 11.51-16.36L11.51-16.36L11.51-16.36Q6.46-11.82 6.46-7.27L6.46-7.27L6.46-7.27Q6.46-4.44 9.19-2.22L9.19-2.22L9.19-2.22Q11.92 0 19.59 0L19.59 0L19.59 0Q27.27 0 34.74-2.42L34.74-2.42L34.74-2.42Q50.90-7.78 54.94-14.14L54.94-14.14L54.94-14.14Q56.56-16.46 56.56-18.08L56.56-18.08L56.56-18.08Q56.56-22.73 50.90-25.35L50.90-25.35L50.90-25.35Q44.34-28.38 32.52-32.32L32.52-32.32L32.52-32.32Q27.98-33.84 24.80-36.31L24.80-36.31L24.80-36.31Q21.61-38.78 21.61-42.27L21.61-42.27L21.61-42.27Q21.61-45.75 25.40-49.14L25.40-49.14L25.40-49.14Q29.19-52.52 34.54-54.54L34.54-54.54L34.54-54.54Q46.06-58.88 54.04-58.88L54.04-58.88L54.04-58.88Q65.15-58.88 65.15-53.33ZM98.47-59.09L98.47-59.09L98.47-59.09Q100.29-59.79 101.61-59.79L101.61-59.79L101.61-59.79Q106.05-59.79 107.46-57.37L107.46-57.37L107.46-57.37Q108.27-56.16 108.27-55.25L108.27-55.25L108.27-55.25Q108.27-48.38 96.76-37.98L96.76-37.98L96.76-37.98Q86.56-28.99 77.97-22.52L77.97-22.52L77.97-22.52Q75.14-16.16 72.11-6.87L72.11-6.87L72.11-6.87Q75.75-11.31 81.31-17.17L81.31-17.17L81.31-17.17Q92.52-28.79 96.96-28.79L96.96-28.79L96.96-28.79Q99.18-28.79 99.28-26.56L99.28-26.56L99.28-26.56Q99.49-24.24 98.32-22.12L98.32-22.12L98.32-22.12Q97.16-20.00 96.15-18.18L96.15-18.18L96.15-18.18Q91.41-10.30 91.41-4.14L91.41-4.14L91.41-4.14Q91.41-2.12 92.21-1.21L92.21-1.21L92.21-1.21Q93.63 0.40 96.25-1.01L96.25-1.01L96.25-1.01Q98.88-2.42 103.58-6.67L103.58-6.67L103.58-6.67Q108.27-10.91 111.20-14.95L111.20-14.95L111.20-14.95Q111.71-15.45 112.16-15.20L112.16-15.20L112.16-15.20Q112.62-14.95 112.62-14.70L112.62-14.70L112.62-14.70Q112.62-14.44 112.41-14.14L112.41-14.14L112.41-14.14Q110.90-11.41 106.96-7.22L106.96-7.22L106.96-7.22Q103.02-3.03 100.60-1.21L100.60-1.21L100.60-1.21Q95.95 2.32 91.71 2.32L91.71 2.32L91.71 2.32Q87.87 2.32 86.56-1.52L86.56-1.52L86.56-1.52Q86.25-2.42 86.25-3.69L86.25-3.69L86.25-3.69Q86.25-4.95 86.46-6.36L86.46-6.36L86.46-6.36Q86.96-10.61 91.81-19.59L91.81-19.59L91.81-19.59Q92.82-21.41 92.82-22.17L92.82-22.17L92.82-22.17Q92.82-22.93 92.01-22.93L92.01-22.93L92.01-22.93Q90.40-22.93 85.75-18.89L85.75-18.89L85.75-18.89Q82.62-15.96 76.51-7.83L76.51-7.83L76.51-7.83Q70.40 0.30 69.59 0.81L69.59 0.81L69.59 0.81Q65.95 2.63 65.09 2.63L65.09 2.63L65.09 2.63Q64.24 2.63 64.14 2.37L64.14 2.37L64.14 2.37Q64.03 2.12 64.24 1.72L64.24 1.72L64.24 1.72Q64.44 1.31 65.85-2.73L65.85-2.73L65.85-2.73Q70.60-16.16 72.32-20.50L72.32-20.50L72.32-20.50Q68.98-16.26 64.03-10.91L64.03-10.91L64.03-10.91Q63.23-10.10 63.23-11.26L63.23-11.26L63.23-11.26Q63.23-12.42 64.14-13.64L64.14-13.64L64.14-13.64Q65.04-14.85 67.92-18.33L67.92-18.33L67.92-18.33Q70.80-21.82 72.01-23.53L72.01-23.53L72.01-23.53Q71.10-24.04 71.05-24.95L71.05-24.95L71.05-24.95Q71.00-25.86 71.66-26.21L71.66-26.21L71.66-26.21Q72.32-26.56 73.83-25.96L73.83-25.96L73.83-25.96Q74.84-27.37 75.65-29.09L75.65-29.09L75.65-29.09Q87.67-54.94 98.47-59.09ZM104.13-51.51L104.13-51.51L104.13-51.51Q105.44-53.93 105.44-55.60L105.44-55.60L105.44-55.60Q105.44-57.27 103.98-57.27L103.98-57.27L103.98-57.27Q102.52-57.27 100.09-55.45L100.09-55.45L100.09-55.45Q88.98-46.97 79.99-27.07L79.99-27.07L79.99-27.07Q86.56-31.31 93.73-38.38L93.73-38.38L93.73-38.38Q100.90-45.45 104.13-51.51ZM157.36-14.14L157.36-14.14Q155.84-11.41 151.90-7.17L151.90-7.17L151.90-7.17Q147.97-2.93 144.83-0.61L144.83-0.61L144.83-0.61Q140.79 2.32 136.05 2.32L136.05 2.32L136.05 2.32Q135.14 2.32 133.67 1.46L133.67 1.46L133.67 1.46Q132.21 0.61 131.70-1.01L131.70-1.01L131.70-1.01Q131.20-2.63 131.20-4.14L131.20-4.14L131.20-4.14Q131.20-9.39 133.22-14.54L133.22-14.54L133.22-14.54Q132.92-14.34 130.44-10.25L130.44-10.25L130.44-10.25Q127.97-6.16 124.38-2.53L124.38-2.53L124.38-2.53Q120.80 1.11 117.16 1.11L117.16 1.11L117.16 1.11Q115.44 1.11 113.22 0.20L113.22 0.20L113.22 0.20Q109.18-1.62 109.18-6.46L109.18-6.46L109.18-6.46Q109.18-12.42 113.27-18.74L113.27-18.74L113.27-18.74Q117.36-25.05 118.47-25.45L118.47-25.45L118.47-25.45Q119.99-25.86 121.35-25.86L121.35-25.86L121.35-25.86Q122.72-25.86 124.13-25.30L124.13-25.30L124.13-25.30Q125.54-24.75 123.73-23.43L123.73-23.43L123.73-23.43Q116.76-17.07 113.83-9.29L113.83-9.29L113.83-9.29Q112.72-6.26 112.72-4.19L112.72-4.19L112.72-4.19Q112.72-2.12 113.78-1.52L113.78-1.52L113.78-1.52Q114.84-0.91 115.85-0.91L115.85-0.91L115.85-0.91Q118.27-0.91 122.46-4.29L122.46-4.29L122.46-4.29Q126.65-7.68 134.03-18.38L134.03-18.38L134.03-18.38Q135.04-19.90 137.56-24.29L137.56-24.29L137.56-24.29Q140.09-28.68 140.59-29.49L140.59-29.49L140.59-29.49Q142.21-29.49 144.38-28.73L144.38-28.73L144.38-28.73Q146.55-27.98 145.84-26.77L145.84-26.77L145.84-26.77Q141.00-18.69 139.03-14.85L139.03-14.85L139.03-14.85Q137.06-11.01 136.35-5.86L136.35-5.86L136.35-5.86Q136.25-4.95 136.25-3.54L136.25-3.54L136.25-3.54Q136.25-2.12 137.06-1.21L137.06-1.21L137.06-1.21Q138.57 0.40 141.25-1.06L141.25-1.06L141.25-1.06Q143.93-2.53 148.57-6.72L148.57-6.72L148.57-6.72Q153.22-10.91 156.05-14.95L156.05-14.95L156.05-14.95Q156.45-15.45 157.00-15.20L157.00-15.20L157.00-15.20Q157.56-14.95 157.56-14.70L157.56-14.70L157.56-14.70Q157.56-14.44 157.36-14.14L157.36-14.14ZM183.11-27.27L183.11-27.27L183.11-27.27Q184.93-27.27 187.46-25.40L187.46-25.40L187.46-25.40Q189.98-23.53 190.28-21.71L190.28-21.71L190.28-21.71Q190.39-21.01 190.39-20.40L190.39-20.40L190.39-20.40Q190.39-15.86 185.94-10.66L185.94-10.66L185.94-10.66Q181.50-5.45 175.94-1.82L175.94-1.82L175.94-1.82Q167.36 4.04 158.87 4.04L158.87 4.04L158.87 4.04Q155.44 4.04 153.42 3.13L153.42 3.13L153.42 3.13Q151.80 2.32 157.46 2.32L157.46 2.32L157.46 2.32Q163.62 2.32 173.42-4.95L173.42-4.95L173.42-4.95Q182.91-11.62 184.93-20.91L184.93-20.91L184.93-20.91Q185.23-22.32 184.88-23.79L184.88-23.79L184.88-23.79Q184.53-25.25 183.11-25.25L183.11-25.25L183.11-25.25Q178.57-25.25 171.19-18.89L171.19-18.89L171.19-18.89Q168.06-16.26 164.78-11.82L164.78-11.82L164.78-11.82Q161.50-7.37 161.50-4.54L161.50-4.54L161.50-4.54Q161.50-4.14 161.65-3.69L161.65-3.69L161.65-3.69Q161.80-3.23 161.30-2.22L161.30-2.22L161.30-2.22Q159.98 0.40 157.56-2.53L157.56-2.53L157.56-2.53Q156.95-4.04 156.95-5.66L156.95-5.66L156.95-5.66Q156.95-10.30 158.37-15.45L158.37-15.45L158.37-15.45Q157.96-15.05 156.60-12.98L156.60-12.98L156.60-12.98Q155.24-10.91 153.42-8.89L153.42-8.89L153.42-8.89Q152.51-7.88 152.00-8.89L152.00-8.89L152.00-8.89Q151.90-9.09 151.90-9.44L151.90-9.44L151.90-9.44Q151.90-9.80 152.31-10.30L152.31-10.30L152.31-10.30Q160.19-20.10 161.50-23.03L161.50-23.03L161.50-23.03Q163.32-28.08 167.05-36.21L167.05-36.21L167.05-36.21Q170.79-44.34 173.92-49.19L173.92-49.19L173.92-49.19Q180.39-59.39 187.25-59.39L187.25-59.39L187.25-59.39Q188.47-59.39 189.78-59.09L189.78-59.09L191.80-58.38L191.80-58.38Q194.73-56.66 194.73-53.98L194.73-53.98L194.73-53.98Q194.73-51.31 193.11-48.18L193.11-48.18L193.11-48.18Q190.49-42.82 181.80-34.69L181.80-34.69L181.80-34.69Q173.11-26.56 164.93-20.91L164.93-20.91L164.93-20.91Q162.91-17.27 161.80-11.41L161.80-11.41L161.80-11.41Q165.54-16.97 171.55-22.12L171.55-22.12L171.55-22.12Q177.56-27.27 183.11-27.27ZM179.88-36.36L179.88-36.36L179.88-36.36Q191.90-48.48 191.90-54.34L191.90-54.34L191.90-54.34Q191.90-56.76 190.08-56.76L190.08-56.76L190.08-56.76Q188.67-56.76 186.24-54.94L186.24-54.94L186.24-54.94Q175.84-46.97 166.04-24.95L166.04-24.95L166.04-24.95Q172.91-29.49 179.88-36.36ZM228.87-59.09L228.87-59.09L228.87-59.09Q230.68-59.79 232.00-59.79L232.00-59.79L232.00-59.79Q236.44-59.79 237.85-57.37L237.85-57.37L237.85-57.37Q238.66-56.16 238.66-55.25L238.66-55.25L238.66-55.25Q238.66-48.38 227.15-37.98L227.15-37.98L227.15-37.98Q216.95-28.99 208.36-22.52L208.36-22.52L208.36-22.52Q205.53-16.16 202.50-6.87L202.50-6.87L202.50-6.87Q206.14-11.31 211.70-17.17L211.70-17.17L211.70-17.17Q222.91-28.79 227.35-28.79L227.35-28.79L227.35-28.79Q229.57-28.79 229.67-26.56L229.67-26.56L229.67-26.56Q229.88-24.24 228.71-22.12L228.71-22.12L228.71-22.12Q227.55-20.00 226.54-18.18L226.54-18.18L226.54-18.18Q221.80-10.30 221.80-4.14L221.80-4.14L221.80-4.14Q221.80-2.12 222.60-1.21L222.60-1.21L222.60-1.21Q224.02 0.40 226.64-1.01L226.64-1.01L226.64-1.01Q229.27-2.42 233.97-6.67L233.97-6.67L233.97-6.67Q238.66-10.91 241.59-14.95L241.59-14.95L241.59-14.95Q242.10-15.45 242.55-15.20L242.55-15.20L242.55-15.20Q243.01-14.95 243.01-14.70L243.01-14.70L243.01-14.70Q243.01-14.44 242.80-14.14L242.80-14.14L242.80-14.14Q241.29-11.41 237.35-7.22L237.35-7.22L237.35-7.22Q233.41-3.03 230.99-1.21L230.99-1.21L230.99-1.21Q226.34 2.32 222.10 2.32L222.10 2.32L222.10 2.32Q218.26 2.32 216.95-1.52L216.95-1.52L216.95-1.52Q216.64-2.42 216.64-3.69L216.64-3.69L216.64-3.69Q216.64-4.95 216.85-6.36L216.85-6.36L216.85-6.36Q217.35-10.61 222.20-19.59L222.20-19.59L222.20-19.59Q223.21-21.41 223.21-22.17L223.21-22.17L223.21-22.17Q223.21-22.93 222.40-22.93L222.40-22.93L222.40-22.93Q220.79-22.93 216.14-18.89L216.14-18.89L216.14-18.89Q213.01-15.96 206.90-7.83L206.90-7.83L206.90-7.83Q200.79 0.30 199.98 0.81L199.98 0.81L199.98 0.81Q196.34 2.63 195.49 2.63L195.49 2.63L195.49 2.63Q194.63 2.63 194.53 2.37L194.53 2.37L194.53 2.37Q194.42 2.12 194.63 1.72L194.63 1.72L194.63 1.72Q194.83 1.31 196.24-2.73L196.24-2.73L196.24-2.73Q200.99-16.16 202.71-20.50L202.71-20.50L202.71-20.50Q199.37-16.26 194.42-10.91L194.42-10.91L194.42-10.91Q193.62-10.10 193.62-11.26L193.62-11.26L193.62-11.26Q193.62-12.42 194.53-13.64L194.53-13.64L194.53-13.64Q195.44-14.85 198.31-18.33L198.31-18.33L198.31-18.33Q201.19-21.82 202.40-23.53L202.40-23.53L202.40-23.53Q201.50-24.04 201.44-24.95L201.44-24.95L201.44-24.95Q201.39-25.86 202.05-26.21L202.05-26.21L202.05-26.21Q202.71-26.56 204.22-25.96L204.22-25.96L204.22-25.96Q205.23-27.37 206.04-29.09L206.04-29.09L206.04-29.09Q218.06-54.94 228.87-59.09ZM234.52-51.51L234.52-51.51L234.52-51.51Q235.83-53.93 235.83-55.60L235.83-55.60L235.83-55.60Q235.83-57.27 234.37-57.27L234.37-57.27L234.37-57.27Q232.91-57.27 230.48-55.45L230.48-55.45L230.48-55.45Q219.37-46.97 210.38-27.07L210.38-27.07L210.38-27.07Q216.95-31.31 224.12-38.38L224.12-38.38L224.12-38.38Q231.29-45.45 234.52-51.51ZM245.33 1.11L245.33 1.11L245.33 1.11Q243.71 1.11 241.84 0.15L241.84 0.15L241.84 0.15Q239.98-0.81 238.66-2.58L238.66-2.58L238.66-2.58Q237.35-4.34 237.35-6.36L237.35-6.36L237.35-6.36Q237.35-8.38 238.26-10.20L238.26-10.20L238.26-10.20Q240.28-14.44 244.77-18.43L244.77-18.43L244.77-18.43Q249.27-22.42 254.12-25.25L254.12-25.25L254.12-25.25Q258.96-28.08 261.79-28.79L261.79-28.79L261.79-28.79Q264.62-29.49 267.30-29.49L267.30-29.49L267.30-29.49Q269.97-29.49 271.89-28.13L271.89-28.13L271.89-28.13Q273.81-26.77 273.81-25.25L273.81-25.25L273.81-25.25Q273.81-24.75 273.71-24.64L273.71-24.64L273.71-24.64Q273.61-24.54 273.20-24.75L273.20-24.75L273.20-24.75Q271.99-26.66 268.21-26.66L268.21-26.66L268.21-26.66Q264.42-26.66 259.62-24.19L259.62-24.19L259.62-24.19Q254.82-21.71 250.58-17.98L250.58-17.98L250.58-17.98Q247.05-14.65 244.37-10.45L244.37-10.45L244.37-10.45Q241.69-6.26 241.69-4.34L241.69-4.34L241.69-4.34Q241.69-0.61 243.81-0.61L243.81-0.61L243.81-0.61Q245.94-0.61 250.28-4.04L250.28-4.04L250.28-4.04Q257.45-10.10 260.07-12.93L260.07-12.93L260.07-12.93Q269.37-22.93 270.07-22.93L270.07-22.93L270.07-22.93Q271.29-22.93 273.00-22.22L273.00-22.22L273.00-22.22Q274.72-21.51 274.11-20.50L274.11-20.50L274.11-20.50Q268.96-13.23 268.05-5.86L268.05-5.86L268.05-5.86Q267.95-4.95 267.95-3.54L267.95-3.54L267.95-3.54Q267.95-2.12 268.76-1.21L268.76-1.21L268.76-1.21Q270.28 0.40 272.90-1.01L272.90-1.01L272.90-1.01Q275.53-2.42 280.22-6.67L280.22-6.67L280.22-6.67Q284.92-10.91 287.75-14.95L287.75-14.95L287.75-14.95Q288.15-15.45 288.66-15.20L288.66-15.20L288.66-15.20Q289.16-14.95 289.16-14.75L289.16-14.75L289.16-14.75Q289.16-13.23 284.37-8.13L284.37-8.13L284.37-8.13Q279.57-3.03 277.04-1.21L277.04-1.21L277.04-1.21Q272.30 2.32 268.26 2.32L268.26 2.32L268.26 2.32Q264.42 2.32 263.11-1.52L263.11-1.52L263.11-1.52Q262.80-2.73 262.80-4.24L262.80-4.24L262.80-4.24Q262.80-8.79 264.72-13.84L264.72-13.84L264.72-13.84Q264.32-13.64 260.98-9.80L260.98-9.80L260.98-9.80Q257.65-5.96 253.26-2.42L253.26-2.42L253.26-2.42Q248.86 1.11 245.33 1.11ZM299.67-26.26L299.67-26.26L299.67-26.26Q299.67-25.55 298.56-23.18L298.56-23.18L298.56-23.18Q297.44-20.81 292.19-6.87L292.19-6.87L292.19-6.87Q295.83-11.31 301.38-17.17L301.38-17.17L301.38-17.17Q312.60-28.89 316.84-28.89L316.84-28.89L316.84-28.89Q317.75-28.89 318.60-28.38L318.60-28.38L318.60-28.38Q319.46-27.88 319.46-26.11L319.46-26.11L319.46-26.11Q319.46-24.34 318.35-22.17L318.35-22.17L318.35-22.17Q317.24-20.00 315.83-16.87L315.83-16.87L315.83-16.87Q314.41-13.74 313.91-12.93L313.91-12.93L313.91-12.93Q322.39-20.60 326.74-22.27L326.74-22.27L326.74-22.27Q331.08-23.94 332.49-23.94L332.49-23.94L332.49-23.94Q333.91-23.94 333.91-22.93L333.91-22.93L333.91-22.93Q333.91-22.32 332.39-20.00L332.39-20.00L332.39-20.00Q330.88-17.68 329.06-13.13L329.06-13.13L329.06-13.13Q327.24-8.59 327.04-6.77L327.04-6.77L327.04-6.77Q326.84-4.95 326.84-3.54L326.84-3.54L326.84-3.54Q326.84-2.12 327.64-1.21L327.64-1.21L327.64-1.21Q329.16 0.40 331.79-1.01L331.79-1.01L331.79-1.01Q334.41-2.42 339.11-6.67L339.11-6.67L339.11-6.67Q343.80-10.91 346.63-14.95L346.63-14.95L346.63-14.95Q347.04-15.45 347.59-15.20L347.59-15.20L347.59-15.20Q348.15-14.95 348.15-14.70L348.15-14.70L348.15-14.70Q348.15-14.44 347.95-14.14L347.95-14.14L347.95-14.14Q346.43-11.41 342.49-7.17L342.49-7.17L342.49-7.17Q336.03-0.20 331.68 1.41L331.68 1.41L331.68 1.41Q326.94 3.03 324.82 1.82L324.82 1.82L324.82 1.82Q322.69 0.61 322.19-0.91L322.19-0.91L322.19-0.91Q321.69-2.42 321.69-3.94L321.69-3.94L321.69-3.94Q321.69-8.69 323.55-13.43L323.55-13.43L323.55-13.43Q325.42-18.18 326.53-19.90L326.53-19.90L326.53-19.90Q322.69-18.28 319.97-15.86L319.97-15.86L319.97-15.86Q315.83-12.22 313.30-9.49L313.30-9.49L311.28-7.27L311.28-7.27Q310.37-5.05 308.10-4.75L308.10-4.75L308.10-4.75Q305.83-4.44 305.93-6.26L305.93-6.26L305.93-6.26Q306.13-8.18 309.67-14.85L309.67-14.85L309.67-14.85Q313.20-21.51 313.20-22.27L313.20-22.27L313.20-22.27Q313.20-23.03 312.39-23.03L312.39-23.03L312.39-23.03Q310.58-23.03 305.83-18.89L305.83-18.89L305.83-18.89Q302.70-15.96 296.59-7.83L296.59-7.83L296.59-7.83Q290.48 0.30 289.67 0.81L289.67 0.81L289.67 0.81Q286.03 2.63 285.12 2.63L285.12 2.63L285.12 2.63Q284.21 2.63 284.21 2.32L284.21 2.32L284.21 2.32Q284.21 2.02 284.52 1.41L284.52 1.41L284.52 1.41Q284.82 0.81 290.68-16.16L290.68-16.16L290.68-16.16Q288.46-12.73 286.64-10.91L286.64-10.91L286.64-10.91Q285.83-10.00 285.83-11.26L285.83-11.26L285.83-11.26Q285.83-12.52 286.54-13.43L286.54-13.43L286.54-13.43Q291.08-19.39 293.20-23.53L293.20-23.53L293.20-23.53Q293.81-27.07 295.63-27.67L295.63-27.67L295.63-27.67Q296.74-28.08 298.20-27.67L298.20-27.67L298.20-27.67Q299.67-27.27 299.67-26.26Z" fill="url(#editing-shiny-gradient)"></path></g></g><g filter="url(#editing-shiny2)"><g transform="translate(78.60142886638641, 107.22000694274902)"><path d="M65.15-53.33L65.15-53.33L65.15-53.33Q65.15-51.11 63.33-48.18L63.33-48.18L63.33-48.18Q61.81-45.45 59.94-44.44L59.94-44.44L59.94-44.44Q58.08-43.43 58.08-44.64L58.08-44.64L58.08-44.64Q58.08-44.74 59.19-45.85L59.19-45.85L59.19-45.85Q62.52-48.99 62.52-51.01L62.52-51.01L62.52-51.01Q62.52-55.35 53.93-55.35L53.93-55.35L53.93-55.35Q50.30-55.35 44.34-53.98L44.34-53.98L44.34-53.98Q38.38-52.62 32.83-49.59L32.83-49.59L32.83-49.59Q26.36-46.06 26.36-43.43L26.36-43.43L26.36-43.43Q26.36-41.31 30.30-39.39L30.30-39.39L30.30-39.39Q32.42-38.38 38.73-36.01L38.73-36.01L38.73-36.01Q45.05-33.63 48.93-31.87L48.93-31.87L48.93-31.87Q52.82-30.10 56.31-26.87L56.31-26.87L56.31-26.87Q59.79-23.63 59.79-19.70L59.79-19.70L59.79-19.70Q59.79-15.76 55.15-11.11L55.15-11.11L55.15-11.11Q48.08-4.34 36.76 0.15L36.76 0.15L36.76 0.15Q25.45 4.65 17.37 4.65L17.37 4.65L17.37 4.65Q1.41 4.65 1.41-4.34L1.41-4.34L1.41-4.34Q1.41-13.33 11.21-19.59L11.21-19.59L11.21-19.59Q19.29-25.15 28.18-25.15L28.18-25.15L28.18-25.15Q30.30-25.15 30.10-24.44L30.10-24.44L30.10-24.44Q29.90-23.74 27.07-23.68L27.07-23.68L27.07-23.68Q24.24-23.63 19.80-21.77L19.80-21.77L19.80-21.77Q15.35-19.90 11.51-16.36L11.51-16.36L11.51-16.36Q6.46-11.82 6.46-7.27L6.46-7.27L6.46-7.27Q6.46-4.44 9.19-2.22L9.19-2.22L9.19-2.22Q11.92 0 19.59 0L19.59 0L19.59 0Q27.27 0 34.74-2.42L34.74-2.42L34.74-2.42Q50.90-7.78 54.94-14.14L54.94-14.14L54.94-14.14Q56.56-16.46 56.56-18.08L56.56-18.08L56.56-18.08Q56.56-22.73 50.90-25.35L50.90-25.35L50.90-25.35Q44.34-28.38 32.52-32.32L32.52-32.32L32.52-32.32Q27.98-33.84 24.80-36.31L24.80-36.31L24.80-36.31Q21.61-38.78 21.61-42.27L21.61-42.27L21.61-42.27Q21.61-45.75 25.40-49.14L25.40-49.14L25.40-49.14Q29.19-52.52 34.54-54.54L34.54-54.54L34.54-54.54Q46.06-58.88 54.04-58.88L54.04-58.88L54.04-58.88Q65.15-58.88 65.15-53.33ZM98.47-59.09L98.47-59.09L98.47-59.09Q100.29-59.79 101.61-59.79L101.61-59.79L101.61-59.79Q106.05-59.79 107.46-57.37L107.46-57.37L107.46-57.37Q108.27-56.16 108.27-55.25L108.27-55.25L108.27-55.25Q108.27-48.38 96.76-37.98L96.76-37.98L96.76-37.98Q86.56-28.99 77.97-22.52L77.97-22.52L77.97-22.52Q75.14-16.16 72.11-6.87L72.11-6.87L72.11-6.87Q75.75-11.31 81.31-17.17L81.31-17.17L81.31-17.17Q92.52-28.79 96.96-28.79L96.96-28.79L96.96-28.79Q99.18-28.79 99.28-26.56L99.28-26.56L99.28-26.56Q99.49-24.24 98.32-22.12L98.32-22.12L98.32-22.12Q97.16-20.00 96.15-18.18L96.15-18.18L96.15-18.18Q91.41-10.30 91.41-4.14L91.41-4.14L91.41-4.14Q91.41-2.12 92.21-1.21L92.21-1.21L92.21-1.21Q93.63 0.40 96.25-1.01L96.25-1.01L96.25-1.01Q98.88-2.42 103.58-6.67L103.58-6.67L103.58-6.67Q108.27-10.91 111.20-14.95L111.20-14.95L111.20-14.95Q111.71-15.45 112.16-15.20L112.16-15.20L112.16-15.20Q112.62-14.95 112.62-14.70L112.62-14.70L112.62-14.70Q112.62-14.44 112.41-14.14L112.41-14.14L112.41-14.14Q110.90-11.41 106.96-7.22L106.96-7.22L106.96-7.22Q103.02-3.03 100.60-1.21L100.60-1.21L100.60-1.21Q95.95 2.32 91.71 2.32L91.71 2.32L91.71 2.32Q87.87 2.32 86.56-1.52L86.56-1.52L86.56-1.52Q86.25-2.42 86.25-3.69L86.25-3.69L86.25-3.69Q86.25-4.95 86.46-6.36L86.46-6.36L86.46-6.36Q86.96-10.61 91.81-19.59L91.81-19.59L91.81-19.59Q92.82-21.41 92.82-22.17L92.82-22.17L92.82-22.17Q92.82-22.93 92.01-22.93L92.01-22.93L92.01-22.93Q90.40-22.93 85.75-18.89L85.75-18.89L85.75-18.89Q82.62-15.96 76.51-7.83L76.51-7.83L76.51-7.83Q70.40 0.30 69.59 0.81L69.59 0.81L69.59 0.81Q65.95 2.63 65.09 2.63L65.09 2.63L65.09 2.63Q64.24 2.63 64.14 2.37L64.14 2.37L64.14 2.37Q64.03 2.12 64.24 1.72L64.24 1.72L64.24 1.72Q64.44 1.31 65.85-2.73L65.85-2.73L65.85-2.73Q70.60-16.16 72.32-20.50L72.32-20.50L72.32-20.50Q68.98-16.26 64.03-10.91L64.03-10.91L64.03-10.91Q63.23-10.10 63.23-11.26L63.23-11.26L63.23-11.26Q63.23-12.42 64.14-13.64L64.14-13.64L64.14-13.64Q65.04-14.85 67.92-18.33L67.92-18.33L67.92-18.33Q70.80-21.82 72.01-23.53L72.01-23.53L72.01-23.53Q71.10-24.04 71.05-24.95L71.05-24.95L71.05-24.95Q71.00-25.86 71.66-26.21L71.66-26.21L71.66-26.21Q72.32-26.56 73.83-25.96L73.83-25.96L73.83-25.96Q74.84-27.37 75.65-29.09L75.65-29.09L75.65-29.09Q87.67-54.94 98.47-59.09ZM104.13-51.51L104.13-51.51L104.13-51.51Q105.44-53.93 105.44-55.60L105.44-55.60L105.44-55.60Q105.44-57.27 103.98-57.27L103.98-57.27L103.98-57.27Q102.52-57.27 100.09-55.45L100.09-55.45L100.09-55.45Q88.98-46.97 79.99-27.07L79.99-27.07L79.99-27.07Q86.56-31.31 93.73-38.38L93.73-38.38L93.73-38.38Q100.90-45.45 104.13-51.51ZM157.36-14.14L157.36-14.14Q155.84-11.41 151.90-7.17L151.90-7.17L151.90-7.17Q147.97-2.93 144.83-0.61L144.83-0.61L144.83-0.61Q140.79 2.32 136.05 2.32L136.05 2.32L136.05 2.32Q135.14 2.32 133.67 1.46L133.67 1.46L133.67 1.46Q132.21 0.61 131.70-1.01L131.70-1.01L131.70-1.01Q131.20-2.63 131.20-4.14L131.20-4.14L131.20-4.14Q131.20-9.39 133.22-14.54L133.22-14.54L133.22-14.54Q132.92-14.34 130.44-10.25L130.44-10.25L130.44-10.25Q127.97-6.16 124.38-2.53L124.38-2.53L124.38-2.53Q120.80 1.11 117.16 1.11L117.16 1.11L117.16 1.11Q115.44 1.11 113.22 0.20L113.22 0.20L113.22 0.20Q109.18-1.62 109.18-6.46L109.18-6.46L109.18-6.46Q109.18-12.42 113.27-18.74L113.27-18.74L113.27-18.74Q117.36-25.05 118.47-25.45L118.47-25.45L118.47-25.45Q119.99-25.86 121.35-25.86L121.35-25.86L121.35-25.86Q122.72-25.86 124.13-25.30L124.13-25.30L124.13-25.30Q125.54-24.75 123.73-23.43L123.73-23.43L123.73-23.43Q116.76-17.07 113.83-9.29L113.83-9.29L113.83-9.29Q112.72-6.26 112.72-4.19L112.72-4.19L112.72-4.19Q112.72-2.12 113.78-1.52L113.78-1.52L113.78-1.52Q114.84-0.91 115.85-0.91L115.85-0.91L115.85-0.91Q118.27-0.91 122.46-4.29L122.46-4.29L122.46-4.29Q126.65-7.68 134.03-18.38L134.03-18.38L134.03-18.38Q135.04-19.90 137.56-24.29L137.56-24.29L137.56-24.29Q140.09-28.68 140.59-29.49L140.59-29.49L140.59-29.49Q142.21-29.49 144.38-28.73L144.38-28.73L144.38-28.73Q146.55-27.98 145.84-26.77L145.84-26.77L145.84-26.77Q141.00-18.69 139.03-14.85L139.03-14.85L139.03-14.85Q137.06-11.01 136.35-5.86L136.35-5.86L136.35-5.86Q136.25-4.95 136.25-3.54L136.25-3.54L136.25-3.54Q136.25-2.12 137.06-1.21L137.06-1.21L137.06-1.21Q138.57 0.40 141.25-1.06L141.25-1.06L141.25-1.06Q143.93-2.53 148.57-6.72L148.57-6.72L148.57-6.72Q153.22-10.91 156.05-14.95L156.05-14.95L156.05-14.95Q156.45-15.45 157.00-15.20L157.00-15.20L157.00-15.20Q157.56-14.95 157.56-14.70L157.56-14.70L157.56-14.70Q157.56-14.44 157.36-14.14L157.36-14.14ZM183.11-27.27L183.11-27.27L183.11-27.27Q184.93-27.27 187.46-25.40L187.46-25.40L187.46-25.40Q189.98-23.53 190.28-21.71L190.28-21.71L190.28-21.71Q190.39-21.01 190.39-20.40L190.39-20.40L190.39-20.40Q190.39-15.86 185.94-10.66L185.94-10.66L185.94-10.66Q181.50-5.45 175.94-1.82L175.94-1.82L175.94-1.82Q167.36 4.04 158.87 4.04L158.87 4.04L158.87 4.04Q155.44 4.04 153.42 3.13L153.42 3.13L153.42 3.13Q151.80 2.32 157.46 2.32L157.46 2.32L157.46 2.32Q163.62 2.32 173.42-4.95L173.42-4.95L173.42-4.95Q182.91-11.62 184.93-20.91L184.93-20.91L184.93-20.91Q185.23-22.32 184.88-23.79L184.88-23.79L184.88-23.79Q184.53-25.25 183.11-25.25L183.11-25.25L183.11-25.25Q178.57-25.25 171.19-18.89L171.19-18.89L171.19-18.89Q168.06-16.26 164.78-11.82L164.78-11.82L164.78-11.82Q161.50-7.37 161.50-4.54L161.50-4.54L161.50-4.54Q161.50-4.14 161.65-3.69L161.65-3.69L161.65-3.69Q161.80-3.23 161.30-2.22L161.30-2.22L161.30-2.22Q159.98 0.40 157.56-2.53L157.56-2.53L157.56-2.53Q156.95-4.04 156.95-5.66L156.95-5.66L156.95-5.66Q156.95-10.30 158.37-15.45L158.37-15.45L158.37-15.45Q157.96-15.05 156.60-12.98L156.60-12.98L156.60-12.98Q155.24-10.91 153.42-8.89L153.42-8.89L153.42-8.89Q152.51-7.88 152.00-8.89L152.00-8.89L152.00-8.89Q151.90-9.09 151.90-9.44L151.90-9.44L151.90-9.44Q151.90-9.80 152.31-10.30L152.31-10.30L152.31-10.30Q160.19-20.10 161.50-23.03L161.50-23.03L161.50-23.03Q163.32-28.08 167.05-36.21L167.05-36.21L167.05-36.21Q170.79-44.34 173.92-49.19L173.92-49.19L173.92-49.19Q180.39-59.39 187.25-59.39L187.25-59.39L187.25-59.39Q188.47-59.39 189.78-59.09L189.78-59.09L191.80-58.38L191.80-58.38Q194.73-56.66 194.73-53.98L194.73-53.98L194.73-53.98Q194.73-51.31 193.11-48.18L193.11-48.18L193.11-48.18Q190.49-42.82 181.80-34.69L181.80-34.69L181.80-34.69Q173.11-26.56 164.93-20.91L164.93-20.91L164.93-20.91Q162.91-17.27 161.80-11.41L161.80-11.41L161.80-11.41Q165.54-16.97 171.55-22.12L171.55-22.12L171.55-22.12Q177.56-27.27 183.11-27.27ZM179.88-36.36L179.88-36.36L179.88-36.36Q191.90-48.48 191.90-54.34L191.90-54.34L191.90-54.34Q191.90-56.76 190.08-56.76L190.08-56.76L190.08-56.76Q188.67-56.76 186.24-54.94L186.24-54.94L186.24-54.94Q175.84-46.97 166.04-24.95L166.04-24.95L166.04-24.95Q172.91-29.49 179.88-36.36ZM228.87-59.09L228.87-59.09L228.87-59.09Q230.68-59.79 232.00-59.79L232.00-59.79L232.00-59.79Q236.44-59.79 237.85-57.37L237.85-57.37L237.85-57.37Q238.66-56.16 238.66-55.25L238.66-55.25L238.66-55.25Q238.66-48.38 227.15-37.98L227.15-37.98L227.15-37.98Q216.95-28.99 208.36-22.52L208.36-22.52L208.36-22.52Q205.53-16.16 202.50-6.87L202.50-6.87L202.50-6.87Q206.14-11.31 211.70-17.17L211.70-17.17L211.70-17.17Q222.91-28.79 227.35-28.79L227.35-28.79L227.35-28.79Q229.57-28.79 229.67-26.56L229.67-26.56L229.67-26.56Q229.88-24.24 228.71-22.12L228.71-22.12L228.71-22.12Q227.55-20.00 226.54-18.18L226.54-18.18L226.54-18.18Q221.80-10.30 221.80-4.14L221.80-4.14L221.80-4.14Q221.80-2.12 222.60-1.21L222.60-1.21L222.60-1.21Q224.02 0.40 226.64-1.01L226.64-1.01L226.64-1.01Q229.27-2.42 233.97-6.67L233.97-6.67L233.97-6.67Q238.66-10.91 241.59-14.95L241.59-14.95L241.59-14.95Q242.10-15.45 242.55-15.20L242.55-15.20L242.55-15.20Q243.01-14.95 243.01-14.70L243.01-14.70L243.01-14.70Q243.01-14.44 242.80-14.14L242.80-14.14L242.80-14.14Q241.29-11.41 237.35-7.22L237.35-7.22L237.35-7.22Q233.41-3.03 230.99-1.21L230.99-1.21L230.99-1.21Q226.34 2.32 222.10 2.32L222.10 2.32L222.10 2.32Q218.26 2.32 216.95-1.52L216.95-1.52L216.95-1.52Q216.64-2.42 216.64-3.69L216.64-3.69L216.64-3.69Q216.64-4.95 216.85-6.36L216.85-6.36L216.85-6.36Q217.35-10.61 222.20-19.59L222.20-19.59L222.20-19.59Q223.21-21.41 223.21-22.17L223.21-22.17L223.21-22.17Q223.21-22.93 222.40-22.93L222.40-22.93L222.40-22.93Q220.79-22.93 216.14-18.89L216.14-18.89L216.14-18.89Q213.01-15.96 206.90-7.83L206.90-7.83L206.90-7.83Q200.79 0.30 199.98 0.81L199.98 0.81L199.98 0.81Q196.34 2.63 195.49 2.63L195.49 2.63L195.49 2.63Q194.63 2.63 194.53 2.37L194.53 2.37L194.53 2.37Q194.42 2.12 194.63 1.72L194.63 1.72L194.63 1.72Q194.83 1.31 196.24-2.73L196.24-2.73L196.24-2.73Q200.99-16.16 202.71-20.50L202.71-20.50L202.71-20.50Q199.37-16.26 194.42-10.91L194.42-10.91L194.42-10.91Q193.62-10.10 193.62-11.26L193.62-11.26L193.62-11.26Q193.62-12.42 194.53-13.64L194.53-13.64L194.53-13.64Q195.44-14.85 198.31-18.33L198.31-18.33L198.31-18.33Q201.19-21.82 202.40-23.53L202.40-23.53L202.40-23.53Q201.50-24.04 201.44-24.95L201.44-24.95L201.44-24.95Q201.39-25.86 202.05-26.21L202.05-26.21L202.05-26.21Q202.71-26.56 204.22-25.96L204.22-25.96L204.22-25.96Q205.23-27.37 206.04-29.09L206.04-29.09L206.04-29.09Q218.06-54.94 228.87-59.09ZM234.52-51.51L234.52-51.51L234.52-51.51Q235.83-53.93 235.83-55.60L235.83-55.60L235.83-55.60Q235.83-57.27 234.37-57.27L234.37-57.27L234.37-57.27Q232.91-57.27 230.48-55.45L230.48-55.45L230.48-55.45Q219.37-46.97 210.38-27.07L210.38-27.07L210.38-27.07Q216.95-31.31 224.12-38.38L224.12-38.38L224.12-38.38Q231.29-45.45 234.52-51.51ZM245.33 1.11L245.33 1.11L245.33 1.11Q243.71 1.11 241.84 0.15L241.84 0.15L241.84 0.15Q239.98-0.81 238.66-2.58L238.66-2.58L238.66-2.58Q237.35-4.34 237.35-6.36L237.35-6.36L237.35-6.36Q237.35-8.38 238.26-10.20L238.26-10.20L238.26-10.20Q240.28-14.44 244.77-18.43L244.77-18.43L244.77-18.43Q249.27-22.42 254.12-25.25L254.12-25.25L254.12-25.25Q258.96-28.08 261.79-28.79L261.79-28.79L261.79-28.79Q264.62-29.49 267.30-29.49L267.30-29.49L267.30-29.49Q269.97-29.49 271.89-28.13L271.89-28.13L271.89-28.13Q273.81-26.77 273.81-25.25L273.81-25.25L273.81-25.25Q273.81-24.75 273.71-24.64L273.71-24.64L273.71-24.64Q273.61-24.54 273.20-24.75L273.20-24.75L273.20-24.75Q271.99-26.66 268.21-26.66L268.21-26.66L268.21-26.66Q264.42-26.66 259.62-24.19L259.62-24.19L259.62-24.19Q254.82-21.71 250.58-17.98L250.58-17.98L250.58-17.98Q247.05-14.65 244.37-10.45L244.37-10.45L244.37-10.45Q241.69-6.26 241.69-4.34L241.69-4.34L241.69-4.34Q241.69-0.61 243.81-0.61L243.81-0.61L243.81-0.61Q245.94-0.61 250.28-4.04L250.28-4.04L250.28-4.04Q257.45-10.10 260.07-12.93L260.07-12.93L260.07-12.93Q269.37-22.93 270.07-22.93L270.07-22.93L270.07-22.93Q271.29-22.93 273.00-22.22L273.00-22.22L273.00-22.22Q274.72-21.51 274.11-20.50L274.11-20.50L274.11-20.50Q268.96-13.23 268.05-5.86L268.05-5.86L268.05-5.86Q267.95-4.95 267.95-3.54L267.95-3.54L267.95-3.54Q267.95-2.12 268.76-1.21L268.76-1.21L268.76-1.21Q270.28 0.40 272.90-1.01L272.90-1.01L272.90-1.01Q275.53-2.42 280.22-6.67L280.22-6.67L280.22-6.67Q284.92-10.91 287.75-14.95L287.75-14.95L287.75-14.95Q288.15-15.45 288.66-15.20L288.66-15.20L288.66-15.20Q289.16-14.95 289.16-14.75L289.16-14.75L289.16-14.75Q289.16-13.23 284.37-8.13L284.37-8.13L284.37-8.13Q279.57-3.03 277.04-1.21L277.04-1.21L277.04-1.21Q272.30 2.32 268.26 2.32L268.26 2.32L268.26 2.32Q264.42 2.32 263.11-1.52L263.11-1.52L263.11-1.52Q262.80-2.73 262.80-4.24L262.80-4.24L262.80-4.24Q262.80-8.79 264.72-13.84L264.72-13.84L264.72-13.84Q264.32-13.64 260.98-9.80L260.98-9.80L260.98-9.80Q257.65-5.96 253.26-2.42L253.26-2.42L253.26-2.42Q248.86 1.11 245.33 1.11ZM299.67-26.26L299.67-26.26L299.67-26.26Q299.67-25.55 298.56-23.18L298.56-23.18L298.56-23.18Q297.44-20.81 292.19-6.87L292.19-6.87L292.19-6.87Q295.83-11.31 301.38-17.17L301.38-17.17L301.38-17.17Q312.60-28.89 316.84-28.89L316.84-28.89L316.84-28.89Q317.75-28.89 318.60-28.38L318.60-28.38L318.60-28.38Q319.46-27.88 319.46-26.11L319.46-26.11L319.46-26.11Q319.46-24.34 318.35-22.17L318.35-22.17L318.35-22.17Q317.24-20.00 315.83-16.87L315.83-16.87L315.83-16.87Q314.41-13.74 313.91-12.93L313.91-12.93L313.91-12.93Q322.39-20.60 326.74-22.27L326.74-22.27L326.74-22.27Q331.08-23.94 332.49-23.94L332.49-23.94L332.49-23.94Q333.91-23.94 333.91-22.93L333.91-22.93L333.91-22.93Q333.91-22.32 332.39-20.00L332.39-20.00L332.39-20.00Q330.88-17.68 329.06-13.13L329.06-13.13L329.06-13.13Q327.24-8.59 327.04-6.77L327.04-6.77L327.04-6.77Q326.84-4.95 326.84-3.54L326.84-3.54L326.84-3.54Q326.84-2.12 327.64-1.21L327.64-1.21L327.64-1.21Q329.16 0.40 331.79-1.01L331.79-1.01L331.79-1.01Q334.41-2.42 339.11-6.67L339.11-6.67L339.11-6.67Q343.80-10.91 346.63-14.95L346.63-14.95L346.63-14.95Q347.04-15.45 347.59-15.20L347.59-15.20L347.59-15.20Q348.15-14.95 348.15-14.70L348.15-14.70L348.15-14.70Q348.15-14.44 347.95-14.14L347.95-14.14L347.95-14.14Q346.43-11.41 342.49-7.17L342.49-7.17L342.49-7.17Q336.03-0.20 331.68 1.41L331.68 1.41L331.68 1.41Q326.94 3.03 324.82 1.82L324.82 1.82L324.82 1.82Q322.69 0.61 322.19-0.91L322.19-0.91L322.19-0.91Q321.69-2.42 321.69-3.94L321.69-3.94L321.69-3.94Q321.69-8.69 323.55-13.43L323.55-13.43L323.55-13.43Q325.42-18.18 326.53-19.90L326.53-19.90L326.53-19.90Q322.69-18.28 319.97-15.86L319.97-15.86L319.97-15.86Q315.83-12.22 313.30-9.49L313.30-9.49L311.28-7.27L311.28-7.27Q310.37-5.05 308.10-4.75L308.10-4.75L308.10-4.75Q305.83-4.44 305.93-6.26L305.93-6.26L305.93-6.26Q306.13-8.18 309.67-14.85L309.67-14.85L309.67-14.85Q313.20-21.51 313.20-22.27L313.20-22.27L313.20-22.27Q313.20-23.03 312.39-23.03L312.39-23.03L312.39-23.03Q310.58-23.03 305.83-18.89L305.83-18.89L305.83-18.89Q302.70-15.96 296.59-7.83L296.59-7.83L296.59-7.83Q290.48 0.30 289.67 0.81L289.67 0.81L289.67 0.81Q286.03 2.63 285.12 2.63L285.12 2.63L285.12 2.63Q284.21 2.63 284.21 2.32L284.21 2.32L284.21 2.32Q284.21 2.02 284.52 1.41L284.52 1.41L284.52 1.41Q284.82 0.81 290.68-16.16L290.68-16.16L290.68-16.16Q288.46-12.73 286.64-10.91L286.64-10.91L286.64-10.91Q285.83-10.00 285.83-11.26L285.83-11.26L285.83-11.26Q285.83-12.52 286.54-13.43L286.54-13.43L286.54-13.43Q291.08-19.39 293.20-23.53L293.20-23.53L293.20-23.53Q293.81-27.07 295.63-27.67L295.63-27.67L295.63-27.67Q296.74-28.08 298.20-27.67L298.20-27.67L298.20-27.67Q299.67-27.27 299.67-26.26Z" fill="url(#editing-shiny-gradient2)"></path></g></g><style>text {
  font-size: 64px;
  font-family: Arial Black;
  dominant-baseline: central;
  text-anchor: middle;
}</style></svg>